<svg width="35" height="44" xmlns="http://www.w3.org/2000/svg">

 <g>
  <title>Layer 1</title>
  <g>
   <g>
    <path d="m29.873,0l-24.873,0c-2.762,0 -5,2.239 -5,5l0,33.916c0,2.761 2.238,5 5,5l24.871,0c2.762,0 5,-2.239 5,-5l0,-33.916c0.002,-2.761 -2.239,-5 -4.998,-5zm-25.187,16.855c0,-1.172 0.951,-2.121 2.121,-2.121l0.742,0c-0.791,-0.874 -1.277,-2.03 -1.277,-3.304c0,-2.723 2.209,-4.931 4.932,-4.931c2.725,0 4.932,2.207 4.932,4.932c0,1.272 -0.486,2.429 -1.279,3.303l0.709,0c1.172,0 2.121,0.949 2.121,2.121l0,3.578c0,1.122 -0.875,2.03 -1.975,2.106l-9.051,0c-1.1,-0.076 -1.975,-0.984 -1.975,-2.106l0,-3.578l0,0zm23.5,20.561l-21.5,0c-1.104,0 -2,-0.896 -2,-2s0.896,-2 2,-2l21.5,0c1.104,0 2,0.896 2,2s-0.896,2 -2,2zm0,-7.5l-21.5,0c-1.104,0 -2,-0.896 -2,-2s0.896,-2 2,-2l21.5,0c1.104,0 2,0.896 2,2s-0.896,2 -2,2zm0,-7.5l-6.5,0c-1.104,0 -2,-0.896 -2,-2c0,-1.104 0.896,-2 2,-2l6.5,0c1.104,0 2,0.896 2,2c0,1.104 -0.896,2 -2,2z"/>
   </g>
   <g/>
   <g/>
   <g/>
   <g/>
   <g/>
   <g/>
   <g/>
   <g/>
   <g/>
   <g/>
   <g/>
   <g/>
   <g/>
   <g/>
   <g/>
  </g>
  <g fill="#845335">
   <g>
    <path fill="#2b2b2b" d="m29.873,0l-24.873,0c-2.762,0 -5,2.239 -5,5l0,33.916c0,2.761 2.238,5 5,5l24.871,0c2.762,0 5,-2.239 5,-5l0,-33.916c0.002,-2.761 -2.239,-5 -4.998,-5zm-25.187,16.855c0,-1.172 0.951,-2.121 2.121,-2.121l0.742,0c-0.791,-0.874 -1.277,-2.03 -1.277,-3.304c0,-2.723 2.209,-4.931 4.932,-4.931c2.725,0 4.932,2.207 4.932,4.932c0,1.272 -0.486,2.429 -1.279,3.303l0.709,0c1.172,0 2.121,0.949 2.121,2.121l0,3.578c0,1.122 -0.875,2.03 -1.975,2.106l-9.051,0c-1.1,-0.076 -1.975,-0.984 -1.975,-2.106l0,-3.578l0,0zm23.5,20.561l-21.5,0c-1.104,0 -2,-0.896 -2,-2s0.896,-2 2,-2l21.5,0c1.104,0 2,0.896 2,2s-0.896,2 -2,2zm0,-7.5l-21.5,0c-1.104,0 -2,-0.896 -2,-2s0.896,-2 2,-2l21.5,0c1.104,0 2,0.896 2,2s-0.896,2 -2,2zm0,-7.5l-6.5,0c-1.104,0 -2,-0.896 -2,-2c0,-1.104 0.896,-2 2,-2l6.5,0c1.104,0 2,0.896 2,2c0,1.104 -0.896,2 -2,2z"/>
   </g>
   <g/>
   <g/>
   <g/>
   <g/>
   <g/>
   <g/>
   <g/>
   <g/>
   <g/>
   <g/>
   <g/>
   <g/>
   <g/>
   <g/>
   <g/>
  </g>
 </g>
</svg>