<svg width="38" height="40" xmlns="http://www.w3.org/2000/svg">

 <g>
  <title>Layer 1</title>
  <path id="svg_1" d="m19,40l-19,-8l0,-26l19,6l0,28z" fill="#dd2c00"/>
  <path id="svg_2" d="m19,40l19,-8l0,-26l-19,6l0,28z" fill="#a52005"/>
  <path id="svg_3" d="m0,6l19,-6l19,6l-19,6l-19,-6z" fill="#ff3d00"/>
  <path id="svg_4" d="m31.538,25.214l1.645,-12.583l1.817,-0.631l-2.438,16.738l-1.787,0.737l-2.078,-10.928l-2.159,12.676l-1.885,0.777l-2.653,-15.484l1.987,-0.69l1.763,11.661l2.135,-13.015l1.604,-0.557l2.049,11.299zm-19.683,1.889c0,-0.324 -0.036,-0.626 -0.109,-0.905c-0.073,-0.279 -0.206,-0.56 -0.399,-0.841c-0.193,-0.281 -0.458,-0.577 -0.794,-0.889c-0.336,-0.311 -0.766,-0.664 -1.29,-1.057c-0.572,-0.424 -1.097,-0.864 -1.577,-1.319c-0.478,-0.454 -0.889,-0.931 -1.232,-1.431c-0.342,-0.499 -0.61,-1.029 -0.803,-1.59c-0.193,-0.561 -0.289,-1.161 -0.289,-1.801c0,-0.633 0.1,-1.182 0.301,-1.649c0.201,-0.468 0.485,-0.838 0.852,-1.111c0.368,-0.273 0.809,-0.438 1.326,-0.492c0.519,-0.055 1.094,0.017 1.728,0.215c0.68,0.213 1.295,0.536 1.842,0.969c0.549,0.434 1.014,0.937 1.395,1.508c0.382,0.573 0.675,1.19 0.88,1.852c0.205,0.663 0.307,1.332 0.307,2.007l-2.137,-0.707c0,-0.39 -0.046,-0.764 -0.139,-1.122c-0.092,-0.357 -0.234,-0.686 -0.424,-0.987c-0.19,-0.3 -0.43,-0.563 -0.719,-0.788c-0.289,-0.225 -0.629,-0.4 -1.022,-0.526c-0.369,-0.119 -0.688,-0.167 -0.957,-0.144c-0.268,0.023 -0.491,0.103 -0.668,0.242c-0.177,0.138 -0.308,0.328 -0.392,0.569c-0.084,0.24 -0.126,0.516 -0.126,0.828c0,0.587 0.208,1.145 0.625,1.676c0.418,0.533 1.059,1.112 1.925,1.741c0.682,0.495 1.276,0.99 1.779,1.485c0.505,0.497 0.926,1.009 1.263,1.534c0.337,0.527 0.588,1.077 0.753,1.649c0.163,0.573 0.246,1.182 0.246,1.827c0,0.682 -0.104,1.258 -0.312,1.727c-0.207,0.469 -0.502,0.823 -0.884,1.063c-0.381,0.24 -0.84,0.36 -1.378,0.363c-0.536,0.003 -1.131,-0.118 -1.784,-0.361c-0.579,-0.215 -1.147,-0.531 -1.704,-0.945c-0.555,-0.413 -1.051,-0.907 -1.489,-1.484c-0.436,-0.575 -0.787,-1.22 -1.052,-1.935c-0.265,-0.712 -0.397,-1.485 -0.397,-2.318l2.041,0.723c0,0.499 0.066,0.951 0.199,1.357c0.133,0.406 0.315,0.765 0.546,1.077c0.232,0.313 0.506,0.579 0.824,0.8c0.318,0.221 0.662,0.4 1.032,0.534c0.731,0.266 1.283,0.271 1.654,0.014c0.372,-0.257 0.559,-0.711 0.559,-1.358z" fill="#fff"/>
 </g>
</svg>