<svg width="38" height="38" xmlns="http://www.w3.org/2000/svg">

 <g>
  <title>Layer 1</title>
  <path id="svg_1" d="m19.48445,0.00007c-1.555,0.005 -2.633,0.142 -3.936,0.367c-3.848,0.67 -4.549,2.077 -4.549,4.67l0,3.963l9,0l0,2l-9.342,0l-4.35,0c-2.636,0 -4.943,1.242 -5.674,4.219c-0.826,3.417 -0.863,5.557 0,9.125c0.655,2.661 2.098,4.656 4.735,4.656l3.632,0l0,-5.104c0,-2.966 2.686,-5.896 5.764,-5.896l7.236,0c2.523,0 5,-1.862 5,-4.377l0,-8.586c0,-2.439 -1.759,-4.263 -4.218,-4.672c0.061,-0.006 -1.756,-0.371 -3.298,-0.365zm-4.984,4c0.821,0 1.5,0.677 1.5,1.502c0,0.833 -0.679,1.498 -1.5,1.498c-0.837,0 -1.5,-0.664 -1.5,-1.498c0,-0.822 0.663,-1.502 1.5,-1.502z" fill="#0277BD"/>
  <path id="svg_2" d="m18.51545,38.00007c1.555,-0.005 2.633,-0.142 3.936,-0.367c3.848,-0.67 4.549,-2.077 4.549,-4.67l0,-3.963l-9,0l0,-2l9.343,0l4.35,0c2.636,0 4.943,-1.242 5.674,-4.219c0.826,-3.417 0.863,-5.557 0,-9.125c-0.656,-2.661 -2.099,-4.656 -4.736,-4.656l-3.632,0l0,5.104c0,2.966 -2.686,5.896 -5.764,5.896l-7.236,0c-2.523,0 -5,1.862 -5,4.377l0,8.586c0,2.439 1.759,4.263 4.218,4.672c-0.061,0.006 1.756,0.371 3.298,0.365zm4.985,-4c-0.821,0 -1.5,-0.677 -1.5,-1.502c0,-0.833 0.679,-1.498 1.5,-1.498c0.837,0 1.5,0.664 1.5,1.498c0,0.822 -0.664,1.502 -1.5,1.502z" fill="#FFC107"/>
 </g>
</svg>