<svg xmlns="http://www.w3.org/2000/svg" width="231" height="42" viewBox="0 0 231 42"><g><g><g><path fill="#9f202f" d="M43.76 7.44h7.867v22.668H43.76zm90.491 0h7.87v22.668h-7.87zm-20.69 11.18c0 2.87 1.86 5.083 5.059 5.083 3.2 0 5.058-2.213 5.058-5.083 0-2.785-1.858-5.126-5.058-5.126-3.199 0-5.059 2.341-5.059 5.126zm17.725-11.18V27.9c0 8.692-3.8 12.705-10.543 13.407V34.6c2.184-.911 2.676-3.247 2.676-6.083v-1.06c-2.033 2.075-4.107 3.092-7.047 3.092-6.485 0-10.936-5.037-10.936-11.577 0-6.628 4.582-12.283 11.37-12.283 2.592 0 4.97.882 6.526 3.137l.087-2.387zM11.23 18.221l-.021.521c0 4.057 3.216 7.347 7.182 7.347h9.518c-2.156 2.922-5.6 4.867-9.455 4.867-6.522 0-11.809-5.408-11.809-12.08 0-6.674 5.287-12.083 11.809-12.083 6.305 0 11.451 5.066 11.788 11.428zm17.335 6.926H18.46c-3.216 0-5.853-2.525-6.119-5.743h24.574C36.638 29.58 28.482 37.74 18.46 37.74 8.266 37.74 0 29.292 0 18.87S8.266 0 18.46 0c9.988 0 18.124 8.138 18.45 18.266h-5.705C30.882 11.358 25.3 5.828 18.46 5.828c-7.046 0-12.76 5.839-12.76 13.043 0 7.202 5.714 13.042 12.76 13.042 4.81 0 8.996-2.72 11.173-6.734zm74.908-5.026H86.918c0 3.27 1.686 5.038 4.927 5.038 1.687 0 2.896-.574 3.761-2.078h7.564c-1.252 5.348-6.223 7.777-11.282 7.777-7.348 0-12.838-4.242-12.838-12.062 0-7.554 5.057-12.106 12.277-12.106 7.693 0 12.147 4.86 12.147 12.592zm-7.306-4.638c-.388-2.166-2.334-3.579-4.452-3.579-2.293 0-4.194 1.237-4.669 3.579zM62.378 7.44v2.917c1.9-2.74 4.104-3.667 7.175-3.667 5.964 0 8.343 3.844 8.343 9.41v14.008h-7.867V19.06c0-2.165.344-5.965-3.547-5.965-3.198 0-4.104 2.43-4.104 5.257v11.755h-7.87V7.44z"></path></g><g><path fill="#706f6f" d="M153.33 12.443c-.172.545-.582.845-1.19.845-.596 0-1.006-.3-1.178-.845-.093-.3-.132-.627-.132-1.226 0-.6.04-.928.132-1.228.172-.546.582-.845 1.178-.845.608 0 1.018.3 1.19.845.093.3.132.627.132 1.228 0 .599-.04.926-.132 1.226zm1.502 2.046c.08 0 .133-.055.133-.136V5.377c0-.082-.053-.137-.133-.137h-1.224c-.08 0-.133.055-.133.137v3.182h-.014c-.306-.448-.838-.776-1.702-.776-1.092 0-1.89.53-2.222 1.578-.16.503-.227.966-.227 1.85 0 .884.067 1.347.227 1.85.332 1.047 1.13 1.577 2.222 1.577.864 0 1.397-.326 1.702-.774h.014v.489c0 .08.053.136.133.136z"></path></g><g><path fill="#706f6f" d="M156.713 14.485c-.08 0-.133-.054-.133-.135V8.066c0-.082.053-.136.133-.136h1.224c.08 0 .134.054.134.136v.558h.013c.305-.504.851-.844 1.663-.844.506 0 1.011.204 1.344.545.067.067.08.122.026.19l-.705.912c-.053.067-.12.08-.186.027-.293-.191-.6-.313-.944-.313-.84 0-1.21.611-1.21 1.658v3.55c0 .082-.055.136-.135.136z"></path></g><g><path fill="#706f6f" d="M162.003 14.485c-.08 0-.133-.055-.133-.136V8.066c0-.082.053-.136.133-.136h1.224c.08 0 .134.054.134.136v6.283c0 .081-.054.136-.134.136z"></path></g><g><path fill="#706f6f" d="M166.702 14.485c-.093 0-.147-.055-.173-.136l-2.262-6.283c-.027-.082.026-.136.106-.136h1.304c.08 0 .133.054.16.136l1.41 4.256h.027l1.384-4.256c.026-.082.08-.136.16-.136h1.277c.079 0 .133.054.106.136l-2.262 6.283c-.027.081-.08.136-.174.136z"></path></g><g><path fill="#706f6f" d="M171.233 14.485c-.08 0-.133-.055-.133-.136V8.066c0-.082.053-.136.133-.136h1.224c.08 0 .134.054.134.136v6.283c0 .081-.054.136-.134.136z"></path></g><g><path fill="#706f6f" d="M178.258 14.485c-.08 0-.133-.054-.133-.135v-3.782c0-.843-.412-1.427-1.212-1.427-.771 0-1.223.584-1.223 1.427v3.782c0 .08-.054.135-.133.135h-1.225c-.079 0-.132-.054-.132-.135V8.066c0-.082.053-.136.132-.136h1.225c.08 0 .133.054.133.136v.476h.013c.28-.408.839-.762 1.69-.762 1.371 0 2.222 1.034 2.222 2.435v4.135c0 .08-.053.135-.133.135z"></path></g><g><path fill="#706f6f" d="M184.716 12.115c-.174.543-.533.842-1.145.842-.6 0-.958-.299-1.132-.842-.106-.299-.145-.624-.145-1.072 0-.435.04-.76.145-1.073.174-.53.533-.829 1.132-.829.612 0 .971.3 1.145.829.106.313.145.638.145 1.073 0 .448-.04.773-.145 1.072m-3.687 3.988c.493.598 1.437.98 2.329.98 1.97 0 2.994-1.13 2.994-3.006V8.066c0-.082-.054-.137-.134-.137h-1.224c-.08 0-.133.055-.133.137v.49h-.013c-.293-.477-.838-.776-1.663-.776-1.078 0-1.85.558-2.182 1.605-.16.503-.213.938-.213 1.66 0 .72.053 1.169.213 1.672.332 1.034 1.104 1.591 2.182 1.591.825 0 1.37-.298 1.663-.762h.013v.613c0 1.02-.452 1.563-1.436 1.563-.532 0-.998-.217-1.398-.612-.066-.068-.133-.068-.2 0l-.784.803c-.067.068-.067.123-.014.19"></path></g><g><path fill="#706f6f" d="M190.38 13.6a.134.134 0 0 1 0-.19l.759-.816a.126.126 0 0 1 .186 0c.465.435 1.21.748 1.876.748.785 0 1.183-.326 1.183-.775 0-.395-.225-.64-1.063-.72l-.693-.069c-1.303-.136-1.969-.816-1.969-1.93 0-1.266.892-2.068 2.488-2.068.998 0 1.836.34 2.408.802a.135.135 0 0 1 .027.19l-.652.803c-.053.068-.12.068-.186.027a3.056 3.056 0 0 0-1.676-.544c-.639 0-.971.286-.971.68 0 .381.225.612 1.05.694l.692.068c1.344.136 1.983.843 1.983 1.918 0 1.305-.932 2.217-2.688 2.217-1.317 0-2.222-.531-2.754-1.035"></path></g><g><path fill="#706f6f" d="M196.91 12.826c-.133-.408-.2-.925-.2-1.618 0-.694.067-1.21.2-1.62.372-1.169 1.357-1.808 2.647-1.808.958 0 1.717.395 2.222 1.02.04.055.054.137-.013.19l-.838.749c-.067.055-.133.04-.186-.027-.32-.367-.652-.572-1.185-.572-.572 0-1.01.286-1.197.858-.107.325-.134.707-.134 1.21s.027.897.134 1.223c.186.559.625.844 1.197.844.533 0 .865-.204 1.185-.571.053-.069.12-.069.186-.015l.838.75c.067.053.053.12.013.19-.505.61-1.264 1.006-2.222 1.006-1.29 0-2.275-.64-2.647-1.809"></path></g><g><path fill="#706f6f" d="M203.173 14.485c-.08 0-.133-.055-.133-.136V8.066c0-.082.053-.136.133-.136h1.224c.08 0 .133.054.133.136v6.283c0 .081-.053.136-.133.136z"></path></g><g><path fill="#706f6f" d="M209.908 9.912c.054.162.08.325.08.555 0 .055-.026.081-.08.081h-2.524c-.053 0-.08-.026-.08-.081 0-.23.027-.393.08-.555.174-.527.654-.839 1.268-.839.601 0 1.083.312 1.256.84m-3.881 2.899c.358 1.142 1.316 1.823 2.674 1.823 1.185 0 2.088-.464 2.635-1.116.052-.068.052-.136-.014-.19l-.785-.708c-.066-.054-.132-.04-.199.028-.32.353-.785.625-1.504.625-.718 0-1.225-.353-1.437-.993a1.45 1.45 0 0 1-.092-.503c0-.054.026-.081.079-.081h3.952c.093 0 .146-.055.146-.136 0-1.061-.067-1.51-.213-1.972-.359-1.116-1.317-1.809-2.634-1.809-1.278 0-2.262.666-2.622 1.809-.133.421-.213.938-.213 1.618 0 .68.094 1.183.227 1.605"></path></g><g><path fill="#706f6f" d="M216.798 14.485c-.08 0-.133-.054-.133-.135v-3.782c0-.843-.412-1.427-1.21-1.427-.772 0-1.225.584-1.225 1.427v3.782c0 .08-.053.135-.133.135h-1.225c-.079 0-.132-.054-.132-.135V8.066c0-.082.053-.136.132-.136h1.225c.08 0 .133.054.133.136v.476h.013c.28-.408.839-.762 1.69-.762 1.37 0 2.223 1.034 2.223 2.435v4.135c0 .08-.054.135-.134.135z"></path></g><g><path fill="#706f6f" d="M219.55 12.826c-.133-.408-.2-.925-.2-1.618 0-.694.067-1.21.2-1.62.372-1.169 1.357-1.808 2.647-1.808.958 0 1.717.395 2.222 1.02.04.055.054.137-.013.19l-.838.749c-.067.055-.133.04-.186-.027-.32-.367-.652-.572-1.185-.572-.572 0-1.01.286-1.197.858-.107.325-.134.707-.134 1.21s.027.897.134 1.223c.186.559.625.844 1.197.844.533 0 .865-.204 1.185-.571.053-.069.12-.069.186-.015l.838.75c.067.053.053.12.013.19-.505.61-1.264 1.006-2.222 1.006-1.29 0-2.275-.64-2.647-1.809"></path></g><g><path fill="#706f6f" d="M229.448 9.912c.054.162.08.325.08.555 0 .055-.026.081-.08.081h-2.524c-.053 0-.08-.026-.08-.081 0-.23.027-.393.08-.555.174-.527.654-.839 1.27-.839.6 0 1.08.312 1.254.84m-3.881 2.899c.358 1.142 1.316 1.823 2.674 1.823 1.185 0 2.088-.464 2.634-1.116.053-.068.053-.136-.013-.19l-.785-.708c-.066-.054-.132-.04-.199.028-.32.353-.785.625-1.504.625-.718 0-1.225-.353-1.437-.993a1.45 1.45 0 0 1-.092-.503c0-.054.026-.081.079-.081h3.951c.094 0 .147-.055.147-.136 0-1.061-.067-1.51-.213-1.972-.359-1.116-1.317-1.809-2.634-1.809-1.278 0-2.262.666-2.622 1.809-.133.421-.213.938-.213 1.618 0 .68.094 1.183.227 1.605"></path></g><g><path fill="#706f6f" d="M153.037 23.335c0 .36-.148.623-.928 1.233-.557-.735-.656-.921-.656-1.22 0-.437.334-.761.804-.761.445 0 .78.337.78.748m-1.104 5.687c-.714 0-1.144-.462-1.144-1.136 0-.462.234-.95 1.033-1.574l1.476 1.924c-.554.599-.911.786-1.365.786m-.837-3.671c-1.18.943-1.586 1.71-1.586 2.614 0 1.32.787 2.288 2.324 2.288.849 0 1.476-.327 2.177-1.068l.209.263c.405.528.663.667 1.217.667h.406c.074 0 .123-.05.123-.125v-1.007c0-.074-.05-.126-.123-.126h-.184c-.197 0-.357-.074-.505-.276l-.295-.376.984-1.22c.05-.063.037-.126-.025-.175l-.676-.592c-.062-.05-.124-.05-.172.013l-.837 1.019-1.303-1.71c1.082-.855 1.45-1.408 1.45-2.187 0-1.018-.81-1.923-2.04-1.923-1.156 0-2.078.817-2.078 1.96 0 .63.258 1.069.934 1.961"></path></g><g><path fill="#706f6f" d="M160.016 30.085c-.094 0-.156-.064-.156-.16V22.57c0-.095.062-.159.156-.159h1.433c.094 0 .156.064.156.16v7.356c0 .095-.062.159-.156.159z"></path></g><g><path fill="#706f6f" d="M168.241 30.08c-.093 0-.155-.064-.155-.159v-4.427c0-.987-.483-1.672-1.419-1.672-.903 0-1.432.685-1.432 1.672v4.427c0 .095-.062.16-.156.16h-1.433c-.094 0-.156-.065-.156-.16v-7.356c0-.096.062-.16.156-.16h1.433c.094 0 .156.064.156.16v.557h.015c.327-.477.982-.892 1.978-.892 1.605 0 2.602 1.21 2.602 2.85v4.841c0 .095-.062.16-.155.16z"></path></g><g><path fill="#706f6f" d="M176.381 30.08c-.093 0-.155-.064-.155-.159v-4.427c0-.987-.483-1.672-1.419-1.672-.903 0-1.432.685-1.432 1.672v4.427c0 .095-.062.16-.156.16h-1.433c-.094 0-.156-.065-.156-.16v-7.356c0-.096.062-.16.156-.16h1.433c.094 0 .156.064.156.16v.557h.015c.327-.477.982-.892 1.98-.892 1.604 0 2.6 1.21 2.6 2.85v4.841c0 .095-.062.16-.155.16z"></path></g><g><path fill="#706f6f" d="M184.131 27.66c-.218.637-.7 1.003-1.402 1.003-.7 0-1.199-.366-1.417-1.003-.125-.398-.156-.764-.156-1.417s.03-1.004.156-1.418c.218-.636.717-1.002 1.417-1.002.702 0 1.184.366 1.402 1.002.125.414.157.765.157 1.418 0 .653-.032 1.019-.157 1.417m-4.502.478c.421 1.337 1.574 2.118 3.1 2.118 1.512 0 2.664-.781 3.085-2.118.172-.542.249-1.05.249-1.895 0-.844-.077-1.354-.25-1.895-.42-1.337-1.572-2.118-3.084-2.118-1.526 0-2.679.78-3.1 2.118-.172.541-.249 1.051-.249 1.895 0 .844.077 1.353.25 1.895"></path></g><g><path fill="#706f6f" d="M189.559 30.085c-.11 0-.172-.064-.203-.16l-2.648-7.356c-.03-.095.031-.159.125-.159h1.526c.094 0 .156.064.187.16l1.651 4.983h.032l1.62-4.984c.03-.095.093-.159.186-.159h1.496c.094 0 .157.064.125.16l-2.648 7.356c-.032.095-.094.159-.203.159z"></path></g><g><path fill="#706f6f" d="M198.987 27.5c0 .876-.592 1.307-1.667 1.307-.841 0-1.294-.32-1.294-.956 0-.717.5-1.034 1.621-1.034h1.246c.063 0 .094.031.094.095zm1.495 2.58c.094 0 .156-.064.156-.159v-5.016c0-1.88-.842-2.675-3.131-2.675-1.231 0-2.056.302-2.663.748-.063.048-.08.128-.033.208l.577 1.05c.047.08.141.096.218.032.36-.286.873-.525 1.714-.525 1.261 0 1.667.398 1.667 1.273v.367c0 .064-.031.095-.094.095h-1.527c-1.853 0-3.006.765-3.006 2.437 0 1.609 1.153 2.34 2.523 2.34 1.06 0 1.761-.366 2.12-.892h.015v.558c0 .095.063.16.156.16z"></path></g><g><path fill="#706f6f" d="M204.656 30.177c-1.511 0-2.088-.748-2.088-2.244v-4.046c0-.063-.031-.095-.093-.095h-.499c-.093 0-.156-.064-.156-.16v-1.066c0-.095.063-.16.156-.16h.499c.062 0 .093-.031.093-.095v-2.102c0-.095.062-.159.156-.159h1.433c.093 0 .156.064.156.16v2.1c0 .065.03.096.093.096h.998c.093 0 .155.065.155.16v1.067c0 .095-.062.16-.155.16h-.998c-.063 0-.093.03-.093.094v3.982c0 .541.218.716.701.716h.39c.093 0 .155.063.155.159v1.274c0 .095-.062.16-.155.16z"></path></g><g><path fill="#706f6f" d="M207.226 30.085c-.094 0-.156-.064-.156-.16V22.57c0-.095.062-.159.156-.159h1.433c.094 0 .156.064.156.16v7.356c0 .095-.062.159-.156.159z"></path></g><g><path fill="#706f6f" d="M215.041 27.66c-.218.637-.7 1.003-1.402 1.003-.7 0-1.199-.366-1.417-1.003-.125-.398-.156-.764-.156-1.417s.03-1.004.156-1.418c.218-.636.717-1.002 1.417-1.002.702 0 1.184.366 1.402 1.002.125.414.157.765.157 1.418 0 .653-.032 1.019-.157 1.417m-4.502.478c.421 1.337 1.574 2.118 3.1 2.118 1.512 0 2.664-.781 3.085-2.118.172-.542.249-1.05.249-1.895 0-.844-.077-1.354-.25-1.895-.42-1.337-1.572-2.118-3.084-2.118-1.526 0-2.679.78-3.1 2.118-.17.541-.249 1.051-.249 1.895 0 .844.078 1.353.25 1.895"></path></g><g><path fill="#706f6f" d="M223.201 30.08c-.093 0-.155-.064-.155-.159v-4.427c0-.987-.483-1.672-1.419-1.672-.903 0-1.432.685-1.432 1.672v4.427c0 .095-.062.16-.156.16h-1.433c-.094 0-.156-.065-.156-.16v-7.356c0-.096.062-.16.156-.16h1.433c.094 0 .156.064.156.16v.557h.015c.327-.477.982-.892 1.98-.892 1.604 0 2.6 1.21 2.6 2.85v4.841c0 .095-.062.16-.155.16z"></path></g></g></g></svg>